<mxfile host="app.diagrams.net" modified="2023-05-31T00:35:57.178Z" agent="Mozilla/5.0 (Windows NT 10.0; Win64; x64; rv:109.0) Gecko/20100101 Firefox/113.0" etag="LntiPXI3P9yz9KukIrQI" version="21.3.6">
  <diagram name="Página-1" id="KIZie9-2DeJgwtSv1mm2">
    <mxGraphModel dx="1246" dy="666" grid="1" gridSize="10" guides="1" tooltips="1" connect="1" arrows="1" fold="1" page="1" pageScale="1" pageWidth="827" pageHeight="1169" math="0" shadow="0">
      <root>
        <mxCell id="0" />
        <mxCell id="1" parent="0" />
        <mxCell id="0LgxVd_9UDOQ7vOchmoB-3" value="" style="edgeStyle=orthogonalEdgeStyle;rounded=0;orthogonalLoop=1;jettySize=auto;html=1;" edge="1" parent="1" source="0LgxVd_9UDOQ7vOchmoB-1" target="0LgxVd_9UDOQ7vOchmoB-2">
          <mxGeometry relative="1" as="geometry" />
        </mxCell>
        <mxCell id="0LgxVd_9UDOQ7vOchmoB-1" value="Login" style="whiteSpace=wrap;html=1;aspect=fixed;" vertex="1" parent="1">
          <mxGeometry x="90" y="170" width="80" height="80" as="geometry" />
        </mxCell>
        <mxCell id="0LgxVd_9UDOQ7vOchmoB-5" value="" style="edgeStyle=orthogonalEdgeStyle;rounded=0;orthogonalLoop=1;jettySize=auto;html=1;dashed=1;endArrow=oval;endFill=1;" edge="1" parent="1" source="0LgxVd_9UDOQ7vOchmoB-2" target="0LgxVd_9UDOQ7vOchmoB-4">
          <mxGeometry relative="1" as="geometry">
            <Array as="points">
              <mxPoint x="440" y="210" />
              <mxPoint x="440" y="80" />
            </Array>
          </mxGeometry>
        </mxCell>
        <mxCell id="0LgxVd_9UDOQ7vOchmoB-8" style="edgeStyle=orthogonalEdgeStyle;rounded=0;orthogonalLoop=1;jettySize=auto;html=1;exitX=1;exitY=0.5;exitDx=0;exitDy=0;entryX=0;entryY=0.5;entryDx=0;entryDy=0;dashed=1;endArrow=oval;endFill=1;" edge="1" parent="1" source="0LgxVd_9UDOQ7vOchmoB-2" target="0LgxVd_9UDOQ7vOchmoB-7">
          <mxGeometry relative="1" as="geometry" />
        </mxCell>
        <mxCell id="0LgxVd_9UDOQ7vOchmoB-10" style="edgeStyle=orthogonalEdgeStyle;rounded=0;orthogonalLoop=1;jettySize=auto;html=1;exitX=1;exitY=0.5;exitDx=0;exitDy=0;entryX=0;entryY=0.5;entryDx=0;entryDy=0;dashed=1;endArrow=oval;endFill=1;" edge="1" parent="1" source="0LgxVd_9UDOQ7vOchmoB-2" target="0LgxVd_9UDOQ7vOchmoB-9">
          <mxGeometry relative="1" as="geometry">
            <Array as="points">
              <mxPoint x="440" y="210" />
              <mxPoint x="440" y="340" />
            </Array>
          </mxGeometry>
        </mxCell>
        <mxCell id="0LgxVd_9UDOQ7vOchmoB-15" value="Filters" style="edgeLabel;html=1;align=center;verticalAlign=middle;resizable=0;points=[];" vertex="1" connectable="0" parent="0LgxVd_9UDOQ7vOchmoB-10">
          <mxGeometry x="-0.6941" y="7" relative="1" as="geometry">
            <mxPoint x="8" y="7" as="offset" />
          </mxGeometry>
        </mxCell>
        <mxCell id="0LgxVd_9UDOQ7vOchmoB-17" value="" style="edgeStyle=orthogonalEdgeStyle;rounded=0;orthogonalLoop=1;jettySize=auto;html=1;entryX=0;entryY=0.5;entryDx=0;entryDy=0;" edge="1" parent="1" source="0LgxVd_9UDOQ7vOchmoB-2" target="0LgxVd_9UDOQ7vOchmoB-16">
          <mxGeometry relative="1" as="geometry" />
        </mxCell>
        <mxCell id="0LgxVd_9UDOQ7vOchmoB-20" style="edgeStyle=orthogonalEdgeStyle;rounded=0;orthogonalLoop=1;jettySize=auto;html=1;exitX=0.5;exitY=1;exitDx=0;exitDy=0;entryX=-0.009;entryY=0.599;entryDx=0;entryDy=0;entryPerimeter=0;" edge="1" parent="1" source="0LgxVd_9UDOQ7vOchmoB-2" target="0LgxVd_9UDOQ7vOchmoB-18">
          <mxGeometry relative="1" as="geometry" />
        </mxCell>
        <mxCell id="0LgxVd_9UDOQ7vOchmoB-21" style="edgeStyle=orthogonalEdgeStyle;rounded=0;orthogonalLoop=1;jettySize=auto;html=1;exitX=0.5;exitY=1;exitDx=0;exitDy=0;entryX=0;entryY=0.5;entryDx=0;entryDy=0;" edge="1" parent="1" source="0LgxVd_9UDOQ7vOchmoB-2" target="0LgxVd_9UDOQ7vOchmoB-19">
          <mxGeometry relative="1" as="geometry" />
        </mxCell>
        <mxCell id="0LgxVd_9UDOQ7vOchmoB-2" value="Catálogo" style="whiteSpace=wrap;html=1;aspect=fixed;" vertex="1" parent="1">
          <mxGeometry x="250" y="170" width="80" height="80" as="geometry" />
        </mxCell>
        <mxCell id="0LgxVd_9UDOQ7vOchmoB-4" value="ALL" style="whiteSpace=wrap;html=1;aspect=fixed;" vertex="1" parent="1">
          <mxGeometry x="480" y="40" width="80" height="80" as="geometry" />
        </mxCell>
        <mxCell id="0LgxVd_9UDOQ7vOchmoB-6" value="Abstract" style="text;html=1;strokeColor=none;fillColor=none;align=center;verticalAlign=middle;whiteSpace=wrap;rounded=0;" vertex="1" parent="1">
          <mxGeometry x="250" y="140" width="60" height="30" as="geometry" />
        </mxCell>
        <mxCell id="0LgxVd_9UDOQ7vOchmoB-7" value="Romance" style="whiteSpace=wrap;html=1;aspect=fixed;" vertex="1" parent="1">
          <mxGeometry x="480" y="170" width="80" height="80" as="geometry" />
        </mxCell>
        <mxCell id="0LgxVd_9UDOQ7vOchmoB-9" value="Classicos" style="whiteSpace=wrap;html=1;aspect=fixed;" vertex="1" parent="1">
          <mxGeometry x="480" y="300" width="80" height="80" as="geometry" />
        </mxCell>
        <mxCell id="0LgxVd_9UDOQ7vOchmoB-11" value="" style="ellipse;whiteSpace=wrap;html=1;aspect=fixed;" vertex="1" parent="1">
          <mxGeometry x="510" y="400" width="20" height="20" as="geometry" />
        </mxCell>
        <mxCell id="0LgxVd_9UDOQ7vOchmoB-12" value="" style="ellipse;whiteSpace=wrap;html=1;aspect=fixed;" vertex="1" parent="1">
          <mxGeometry x="510" y="430" width="20" height="20" as="geometry" />
        </mxCell>
        <mxCell id="0LgxVd_9UDOQ7vOchmoB-14" value="" style="ellipse;whiteSpace=wrap;html=1;aspect=fixed;" vertex="1" parent="1">
          <mxGeometry x="510" y="460" width="20" height="20" as="geometry" />
        </mxCell>
        <mxCell id="0LgxVd_9UDOQ7vOchmoB-16" value="My Books" style="whiteSpace=wrap;html=1;aspect=fixed;" vertex="1" parent="1">
          <mxGeometry x="310" y="330" width="80" height="80" as="geometry" />
        </mxCell>
        <mxCell id="0LgxVd_9UDOQ7vOchmoB-18" value="Profile" style="whiteSpace=wrap;html=1;aspect=fixed;" vertex="1" parent="1">
          <mxGeometry x="310" y="430" width="80" height="80" as="geometry" />
        </mxCell>
        <mxCell id="0LgxVd_9UDOQ7vOchmoB-19" value="Settings" style="whiteSpace=wrap;html=1;aspect=fixed;" vertex="1" parent="1">
          <mxGeometry x="310" y="530" width="80" height="80" as="geometry" />
        </mxCell>
      </root>
    </mxGraphModel>
  </diagram>
</mxfile>
